<svg width="32" height="32" viewBox="0 0 32 32" fill="none" xmlns="http://www.w3.org/2000/svg">
<path d="M8 20C8 18.9391 8.42143 17.9217 9.17157 17.1716C9.92172 16.4214 10.9391 16 12 16C13.0609 16 14.0783 16.4214 14.8284 17.1716C15.5786 17.9217 16 18.9391 16 20C16 21.0609 15.5786 22.0783 14.8284 22.8284C14.0783 23.5786 13.0609 24 12 24C10.9391 24 9.92172 23.5786 9.17157 22.8284C8.42143 22.0783 8 21.0609 8 20Z" fill="white"/>
<path d="M19.2867 9.56133C19.2867 9.56133 20.944 9.33333 22.1147 10.504C23.2867 11.676 23.0573 13.3333 23.0573 13.3333M12 12.3907C12 12.3907 10.3427 12.6187 9.17199 11.448C7.99999 10.276 8.22933 8.61867 8.22933 8.61867M25.3333 17.5147C25.3333 17.5147 23.784 18.1453 23.356 19.7453C22.9267 21.3453 23.9533 22.6653 23.9533 22.6653M17.8933 23.696L20 25.3333" stroke="white" stroke-width="2" stroke-linecap="round"/>
<path opacity="0.5" fill-rule="evenodd" clip-rule="evenodd" d="M16 2.66667C8.63602 2.66667 2.66669 8.636 2.66669 16C2.66669 23.364 8.63602 29.3333 16 29.3333C23.364 29.3333 29.3334 23.364 29.3334 16C29.3334 8.636 23.364 2.66667 16 2.66667ZM7.47602 14.3827C7.52627 14.2613 7.55213 14.1313 7.55213 13.9999C7.55212 13.8686 7.52624 13.7386 7.47597 13.6172C7.42571 13.4959 7.35203 13.3856 7.25916 13.2928C7.16628 13.1999 7.05603 13.1263 6.93469 13.076C6.81335 13.0257 6.68329 12.9999 6.55196 12.9999C6.42062 12.9999 6.29058 13.0258 6.16924 13.076C6.0479 13.1263 5.93766 13.2 5.8448 13.2929C5.75193 13.3857 5.67827 13.496 5.62802 13.6173L5.07602 14.9507C4.97453 15.1957 4.97455 15.4711 5.07607 15.7161C5.17759 15.9612 5.37229 16.1558 5.61735 16.2573C5.86241 16.3588 6.13775 16.3588 6.3828 16.2573C6.62785 16.1558 6.82253 15.9611 6.92402 15.716L7.47602 14.3827ZM19.3334 15C19.5986 15 19.8529 15.1054 20.0405 15.2929C20.228 15.4804 20.3334 15.7348 20.3334 16V18.6667C20.3334 18.9319 20.228 19.1862 20.0405 19.3738C19.8529 19.5613 19.5986 19.6667 19.3334 19.6667C19.0681 19.6667 18.8138 19.5613 18.6262 19.3738C18.4387 19.1862 18.3334 18.9319 18.3334 18.6667V16C18.3334 15.7348 18.4387 15.4804 18.6262 15.2929C18.8138 15.1054 19.0681 15 19.3334 15ZM16 5.66667H13.3334C13.0681 5.66667 12.8138 5.77202 12.6262 5.95956C12.4387 6.1471 12.3334 6.40145 12.3334 6.66667C12.3334 6.93188 12.4387 7.18624 12.6262 7.37378C12.8138 7.56131 13.0681 7.66667 13.3334 7.66667H16C16.2652 7.66667 16.5196 7.56131 16.7071 7.37378C16.8947 7.18624 17 6.93188 17 6.66667C17 6.40145 16.8947 6.1471 16.7071 5.95956C16.5196 5.77202 16.2652 5.66667 16 5.66667Z" fill="white"/>
<path d="M16.6667 12.6667L15.3334 11.3333" stroke="white" stroke-width="2" stroke-linecap="round"/>
</svg>
