<svg width="16" height="16" viewBox="0 0 16 16" fill="none" xmlns="http://www.w3.org/2000/svg">
<path d="M12.0933 11.1333C11.4867 12.14 10.72 11.82 9.99999 11.3933C9.27999 10.9667 8.59999 10.4533 8.16666 11.06C7.69333 11.58 8.05999 12.4133 8.24666 13.1467C8.43333 13.8867 8.44666 14.5267 7.26666 14.6667C6.33333 14.54 6.38666 13.7667 6.53999 12.9467C6.69333 12.1267 6.93333 11.26 6.33333 10.9533C5.85333 10.6333 5.51999 11.1867 5.09999 11.7333C4.66666 12.2733 4.17333 12.8 3.35999 12.4133C2.62666 11.8067 2.90666 11.4533 3.29333 11C3.67999 10.5467 4.17999 9.94 3.89333 8.87333C3.77333 8.44 3.17333 8.54 2.57999 8.52667C1.99999 8.51333 1.41333 8.39333 1.35333 7.52667C1.30666 7 1.69999 6.78667 2.10666 6.62C2.51999 6.45333 2.93999 6.33333 2.94666 5.91333C2.96666 5.50667 2.69333 5.22 2.51999 4.92C2.34666 4.62 2.27333 4.30667 2.68666 3.84C3.38666 3.26667 3.94666 3.75333 4.50666 4.28C5.06666 4.80667 5.61999 5.36 6.30666 4.92667C6.85333 4.56667 6.35333 3.93333 5.96666 3.31333C5.57999 2.69333 5.30666 2.1 6.30666 1.82667C7.17333 1.58667 7.50666 2.18 7.80666 2.86667C8.11333 3.55333 8.37999 4.33333 9.11333 4.47333C10.16 4.66667 10.92 3.44 11.6467 2.46667C12.3733 1.49333 13.0867 0.766667 14 1.96667C15 3.22667 14.0467 3.81333 12.9333 4.33333C11.82 4.82 10.54 5.24667 10.8467 6.18667C11.0267 6.73333 11.6133 6.43333 12.2333 6.22667C12.8467 6.02 13.5067 5.90667 13.8267 6.84667C14.1667 7.84 13.36 8.06667 12.4533 8.16C11.5467 8.25333 10.5333 8.21333 10.4667 8.66667C10.3933 9.14 11 9.33333 11.5267 9.61333C12.0533 9.9 12.5 10.28 12.0933 11.1333ZM13.6667 12.6667C13.0333 12.6667 12.7067 12.1733 12.7067 11.6667C12.7067 11.16 13.0267 10.6667 13.6667 10.6667C14.3333 10.6667 14.6667 11.16 14.6667 11.6667C14.6667 12.1733 14.3333 12.6667 13.6667 12.6667Z" fill="#2C2D38"/>
</svg>
