<svg width="14" height="15" viewBox="0 0 14 15" fill="none" xmlns="http://www.w3.org/2000/svg">
<path d="M4.9987 9.00004C4.76536 9.00004 4.56814 8.91948 4.40703 8.75837C4.24592 8.59726 4.16536 8.40004 4.16536 8.16671C4.16536 7.93337 4.24592 7.73615 4.40703 7.57504C4.56814 7.41393 4.76536 7.33337 4.9987 7.33337C5.23203 7.33337 5.42925 7.41393 5.59036 7.57504C5.75148 7.73615 5.83203 7.93337 5.83203 8.16671C5.83203 8.40004 5.75148 8.59726 5.59036 8.75837C5.42925 8.91948 5.23203 9.00004 4.9987 9.00004ZM8.9987 9.00004C8.76536 9.00004 8.56814 8.91948 8.40703 8.75837C8.24592 8.59726 8.16536 8.40004 8.16536 8.16671C8.16536 7.93337 8.24592 7.73615 8.40703 7.57504C8.56814 7.41393 8.76536 7.33337 8.9987 7.33337C9.23203 7.33337 9.42925 7.41393 9.59036 7.57504C9.75148 7.73615 9.83203 7.93337 9.83203 8.16671C9.83203 8.40004 9.75148 8.59726 9.59036 8.75837C9.42925 8.91948 9.23203 9.00004 8.9987 9.00004ZM6.9987 12.8334C8.48759 12.8334 9.7487 12.3167 10.782 11.2834C11.8154 10.25 12.332 8.98893 12.332 7.50004C12.332 7.23337 12.3154 6.97504 12.282 6.72504C12.2487 6.47504 12.1876 6.23337 12.0987 6.00004C11.8654 6.0556 11.632 6.09726 11.3987 6.12504C11.1654 6.15282 10.9209 6.16671 10.6654 6.16671C9.65425 6.16671 8.6987 5.95004 7.7987 5.51671C6.8987 5.08337 6.13203 4.47782 5.4987 3.70004C5.14314 4.56671 4.63481 5.31948 3.9737 5.95837C3.31259 6.59726 2.54314 7.07782 1.66536 7.40004V7.50004C1.66536 8.98893 2.18203 10.25 3.21536 11.2834C4.2487 12.3167 5.50981 12.8334 6.9987 12.8334ZM6.9987 14.1667C6.07648 14.1667 5.20981 13.9917 4.3987 13.6417C3.58759 13.2917 2.88203 12.8167 2.28203 12.2167C1.68203 11.6167 1.20703 10.9112 0.857031 10.1C0.507031 9.28893 0.332031 8.42226 0.332031 7.50004C0.332031 6.57782 0.507031 5.71115 0.857031 4.90004C1.20703 4.08893 1.68203 3.38337 2.28203 2.78337C2.88203 2.18337 3.58759 1.70837 4.3987 1.35837C5.20981 1.00837 6.07648 0.833374 6.9987 0.833374C7.92092 0.833374 8.78759 1.00837 9.5987 1.35837C10.4098 1.70837 11.1154 2.18337 11.7154 2.78337C12.3154 3.38337 12.7904 4.08893 13.1404 4.90004C13.4904 5.71115 13.6654 6.57782 13.6654 7.50004C13.6654 8.42226 13.4904 9.28893 13.1404 10.1C12.7904 10.9112 12.3154 11.6167 11.7154 12.2167C11.1154 12.8167 10.4098 13.2917 9.5987 13.6417C8.78759 13.9917 7.92092 14.1667 6.9987 14.1667ZM6.0987 2.25004C6.56536 3.02782 7.1987 3.65282 7.9987 4.12504C8.7987 4.59726 9.68759 4.83337 10.6654 4.83337C10.8209 4.83337 10.9709 4.82504 11.1154 4.80837C11.2598 4.79171 11.4098 4.77226 11.5654 4.75004C11.0987 3.97226 10.4654 3.34726 9.66536 2.87504C8.86536 2.40282 7.97648 2.16671 6.9987 2.16671C6.84314 2.16671 6.69314 2.17504 6.5487 2.19171C6.40425 2.20837 6.25425 2.22782 6.0987 2.25004ZM1.9487 5.81671C2.51536 5.49448 3.00981 5.07782 3.43203 4.56671C3.85425 4.0556 4.17092 3.48337 4.38203 2.85004C3.81536 3.17226 3.32092 3.58893 2.8987 4.10004C2.47648 4.61115 2.15981 5.18337 1.9487 5.81671Z" fill="#1C1B1F"/>
</svg>
