<svg width="40" height="41" viewBox="0 0 40 41" fill="none" xmlns="http://www.w3.org/2000/svg">
<mask id="mask0_215_1038" style="mask-type:alpha" maskUnits="userSpaceOnUse" x="0" y="0" width="40" height="41">
<rect y="0.5" width="40" height="40" fill="#D9D9D9"/>
</mask>
<g mask="url(#mask0_215_1038)">
<path fill-rule="evenodd" clip-rule="evenodd" d="M6.66667 33.8333V37.1666H33.3333V33.8333H30V28.8333H31.6667C32.5833 28.8333 33.3681 28.5069 34.0208 27.8541C34.6736 27.2014 35 26.4166 35 25.5V22.1666C35 21.25 34.6736 20.4653 34.0208 19.8125C33.3681 19.1597 32.5833 18.8333 31.6667 18.8333H30V13.8333L29.4167 10.5C28.7222 8.55553 27.5208 6.95831 25.8125 5.70831C24.1042 4.45831 22.1667 3.83331 20 3.83331C17.8333 3.83331 15.8958 4.45831 14.1875 5.70831C12.4792 6.95831 11.2778 8.55553 10.5833 10.5H6.66667V13.8333H10V18.8333H8.33333C7.41667 18.8333 6.63194 19.1597 5.97917 19.8125C5.32639 20.4653 5 21.25 5 22.1666V25.5C5 26.4166 5.32639 27.2014 5.97917 27.8541C6.63194 28.5069 7.41667 28.8333 8.33333 28.8333H10V33.8333H6.66667ZM23.3958 8.08331C24.4097 8.69442 25.2083 9.49998 25.7917 10.5H14.2083C14.7917 9.49998 15.5903 8.69442 16.6042 8.08331C17.6181 7.4722 18.75 7.16665 20 7.16665C21.25 7.16665 22.3819 7.4722 23.3958 8.08331ZM31.6667 25.5H26.6667V33.8333H13.3333V25.5H8.33333V22.1666H13.3333V13.8333H26.6667V22.1666H31.6667V25.5Z" fill="#1C1B1F"/>
<path fill-rule="evenodd" clip-rule="evenodd" d="M20 29.6666C21.6111 29.6666 22.9861 29.0972 24.125 27.9583C25.2639 26.8194 25.8333 25.4444 25.8333 23.8333C25.8333 22.2222 25.2639 20.8472 24.125 19.7083C22.9861 18.5694 21.6111 18 20 18C18.3889 18 17.0139 18.5694 15.875 19.7083C14.7361 20.8472 14.1667 22.2222 14.1667 23.8333C14.1667 25.4444 14.7361 26.8194 15.875 27.9583C17.0139 29.0972 18.3889 29.6666 20 29.6666ZM18.2292 25.6041C18.7153 26.0903 19.3056 26.3333 20 26.3333C20.6944 26.3333 21.2847 26.0903 21.7708 25.6041C22.2569 25.118 22.5 24.5278 22.5 23.8333C22.5 23.1389 22.2569 22.5486 21.7708 22.0625C21.2847 21.5764 20.6944 21.3333 20 21.3333C19.3056 21.3333 18.7153 21.5764 18.2292 22.0625C17.7431 22.5486 17.5 23.1389 17.5 23.8333C17.5 24.5278 17.7431 25.118 18.2292 25.6041Z" fill="#FF5C00"/>
<path d="M33.731 11.6697C32.4532 11.6697 31.3398 11.2461 30.3907 10.3988C29.4416 9.55162 28.8976 8.49375 28.7587 7.22523H29.8976C30.0273 8.1882 30.4555 8.98449 31.1823 9.61412C31.9092 10.2438 32.7587 10.5586 33.731 10.5586C34.8143 10.5586 35.7333 10.1813 36.4879 9.42662C37.2425 8.67199 37.6198 7.75301 37.6198 6.66968C37.6198 5.58634 37.2425 4.66736 36.4879 3.91273C35.7333 3.1581 34.8143 2.78079 33.731 2.78079C33.0921 2.78079 32.4948 2.92894 31.9393 3.22523C31.3837 3.52153 30.9161 3.92894 30.5365 4.44746H32.0643V5.55857H28.731V2.22523H29.8421V3.53079C30.3143 2.9382 30.8907 2.47986 31.5712 2.15579C32.2518 1.83171 32.9717 1.66968 33.731 1.66968C34.4254 1.66968 35.0759 1.80162 35.6823 2.06551C36.2888 2.3294 36.8166 2.68588 37.2657 3.13496C37.7148 3.58403 38.0712 4.11181 38.3351 4.71829C38.599 5.32477 38.731 5.97523 38.731 6.66968C38.731 7.36412 38.599 8.01459 38.3351 8.62107C38.0712 9.22755 37.7148 9.75533 37.2657 10.2044C36.8166 10.6535 36.2888 11.01 35.6823 11.2738C35.0759 11.5377 34.4254 11.6697 33.731 11.6697ZM35.2865 9.00301L33.1754 6.8919V3.8919H34.2865V6.44746L36.0643 8.22523L35.2865 9.00301Z" fill="#1A73E8"/>
</g>
</svg>
