<svg width="40" height="41" viewBox="0 0 40 41" fill="none" xmlns="http://www.w3.org/2000/svg">
<mask id="mask0_215_1046" style="mask-type:alpha" maskUnits="userSpaceOnUse" x="0" y="0" width="40" height="41">
<rect y="0.5" width="40" height="40" fill="#D9D9D9"/>
</mask>
<g mask="url(#mask0_215_1046)">
<path fill-rule="evenodd" clip-rule="evenodd" d="M6.66667 33.8333V37.1666H33.3333V33.8333H30V28.8333H31.6667C32.5833 28.8333 33.3681 28.5069 34.0208 27.8541C34.6736 27.2014 35 26.4166 35 25.5V22.1666C35 21.25 34.6736 20.4653 34.0208 19.8125C33.3681 19.1597 32.5833 18.8333 31.6667 18.8333H30V13.8333L29.4167 10.5C28.7222 8.55554 27.5208 6.95831 25.8125 5.70831C24.1042 4.45831 22.1667 3.83331 20 3.83331C17.8333 3.83331 15.8958 4.45831 14.1875 5.70831C12.4792 6.95831 11.2778 8.55554 10.5833 10.5H6.66667V13.8333H10V18.8333H8.33333C7.41667 18.8333 6.63194 19.1597 5.97917 19.8125C5.32639 20.4653 5 21.25 5 22.1666V25.5C5 26.4166 5.32639 27.2014 5.97917 27.8541C6.63194 28.5069 7.41667 28.8333 8.33333 28.8333H10V33.8333H6.66667ZM23.3958 8.08331C24.4097 8.69442 25.2083 9.49998 25.7917 10.5H14.2083C14.7917 9.49998 15.5903 8.69442 16.6042 8.08331C17.6181 7.4722 18.75 7.16665 20 7.16665C21.25 7.16665 22.3819 7.4722 23.3958 8.08331ZM31.6667 25.5H26.6667V33.8333H13.3333V25.5H8.33333V22.1666H13.3333V13.8333H26.6667V22.1666H31.6667V25.5Z" fill="#1C1B1F"/>
<path fill-rule="evenodd" clip-rule="evenodd" d="M20 29.6666C21.6111 29.6666 22.9861 29.0972 24.125 27.9583C25.2639 26.8194 25.8333 25.4444 25.8333 23.8333C25.8333 22.2222 25.2639 20.8472 24.125 19.7083C22.9861 18.5694 21.6111 18 20 18C18.3889 18 17.0139 18.5694 15.875 19.7083C14.7361 20.8472 14.1667 22.2222 14.1667 23.8333C14.1667 25.4444 14.7361 26.8194 15.875 27.9583C17.0139 29.0972 18.3889 29.6666 20 29.6666ZM18.2292 25.6041C18.7153 26.0903 19.3056 26.3333 20 26.3333C20.6944 26.3333 21.2847 26.0903 21.7708 25.6041C22.2569 25.118 22.5 24.5278 22.5 23.8333C22.5 23.1389 22.2569 22.5486 21.7708 22.0625C21.2847 21.5764 20.6944 21.3333 20 21.3333C19.3056 21.3333 18.7153 21.5764 18.2292 22.0625C17.7431 22.5486 17.5 23.1389 17.5 23.8333C17.5 24.5278 17.7431 25.118 18.2292 25.6041Z" fill="#FF5C00"/>
<path d="M34.4444 7.72224V2.16669H35.5556V7.72224H34.4444ZM35 12.1667C34.3148 12.1667 33.669 12.0347 33.0625 11.7709C32.456 11.507 31.9259 11.1482 31.4722 10.6945C31.0185 10.2408 30.6597 9.71067 30.3958 9.10419C30.1319 8.49771 30 7.85187 30 7.16669C30 6.42595 30.1528 5.72687 30.4583 5.06946C30.7639 4.41206 31.1944 3.84261 31.75 3.36113L32.5278 4.13891C32.0833 4.50928 31.7361 4.95835 31.4861 5.48613C31.2361 6.01391 31.1111 6.57409 31.1111 7.16669C31.1111 8.24076 31.4907 9.15743 32.25 9.91669C33.0093 10.6759 33.9259 11.0556 35 11.0556C36.0833 11.0556 37.0023 10.6759 37.7569 9.91669C38.5116 9.15743 38.8889 8.24076 38.8889 7.16669C38.8889 6.57409 38.7662 6.01391 38.5208 5.48613C38.2755 4.95835 37.9259 4.50928 37.4722 4.13891L38.25 3.36113C38.8056 3.84261 39.2361 4.41206 39.5417 5.06946C39.8472 5.72687 40 6.42595 40 7.16669C40 7.85187 39.8681 8.49771 39.6042 9.10419C39.3403 9.71067 38.9838 10.2408 38.5347 10.6945C38.0856 11.1482 37.5579 11.507 36.9514 11.7709C36.3449 12.0347 35.6944 12.1667 35 12.1667Z" fill="#14AE5D"/>
</g>
</svg>
