<svg width="300" height="250" viewBox="0 0 300 250" fill="none" xmlns="http://www.w3.org/2000/svg">
<rect x="2" y="2" width="296" height="246" rx="6" fill="white"/>
<path d="M134 88C134 91.4478 132.63 94.7544 130.192 97.1924C127.754 99.6304 124.448 101 121 101C117.552 101 114.246 99.6304 111.808 97.1924C109.37 94.7544 108 91.4478 108 88H110.428C110.428 90.804 111.541 93.4931 113.524 95.4758C115.507 97.4585 118.196 98.5724 121 98.5724C123.804 98.5724 126.493 97.4585 128.476 95.4758C130.459 93.4931 131.572 90.804 131.572 88H134Z" fill="#D9D9D9"/>
<path d="M192 88C192 91.4478 190.63 94.7544 188.192 97.1924C185.754 99.6304 182.448 101 179 101C175.552 101 172.246 99.6304 169.808 97.1924C167.37 94.7544 166 91.4478 166 88H168.428C168.428 90.804 169.541 93.4931 171.524 95.4758C173.507 97.4585 176.196 98.5724 179 98.5724C181.804 98.5724 184.493 97.4585 186.476 95.4758C188.459 93.4931 189.572 90.804 189.572 88H192Z" fill="#D9D9D9"/>
<circle cx="150" cy="125" r="5" fill="#D9D9D9"/>
<path d="M214.152 63.16H218.104V65H211.608V63.192L215.48 57.976H211.624V56.136H218.056V57.944L214.152 63.16Z" fill="#83848A"/>
<path d="M223.728 28.24H229.656V31H219.912V28.288L225.72 20.464H219.936V17.704H229.584V20.416L223.728 28.24Z" fill="#83848A"/>
<rect x="10.5" y="10.5" width="279" height="229" rx="3.5" stroke="black"/>
<rect x="2" y="2" width="296" height="246" rx="6" stroke="black" stroke-width="4"/>
</svg>
