<svg width="195" height="165" viewBox="0 0 195 165" fill="none" xmlns="http://www.w3.org/2000/svg">
<rect x="2" y="2" width="190.882" height="158.402" rx="6" fill="white"/>
<rect x="6.99606" y="6.99609" width="180.89" height="148.409" rx="3.5" stroke="black"/>
<rect x="2" y="2" width="190.882" height="158.402" rx="6" stroke="black" stroke-width="4"/>
<line x1="64.9606" y1="164" x2="129.272" y2="164" stroke="black" stroke-width="2"/>
<path d="M122.012 87.359C119.145 83.9488 115.274 81.1823 110.757 79.3138C106.239 77.4453 101.22 76.5348 96.1589 76.6659C91.0983 76.7971 86.1592 77.9656 81.7955 80.0642C77.4319 82.1628 73.7838 85.1241 71.1866 88.6758L72.6556 89.3933C75.1057 86.0427 78.5471 83.2492 82.6635 81.2695C86.7799 79.2898 91.4392 78.1875 96.2131 78.0638C100.987 77.9401 105.722 78.799 109.984 80.5616C114.246 82.3243 117.897 84.934 120.602 88.151L122.012 87.359Z" fill="#888992"/>
<line opacity="0.45" x1="66.9669" y1="41.5173" x2="81.9079" y2="56.4583" stroke="#E46B26" stroke-width="2"/>
<line opacity="0.45" y1="-1" x2="21.1297" y2="-1" transform="matrix(-0.707107 0.707107 0.707107 0.707107 81.2008 42.2244)" stroke="#E46B26" stroke-width="2"/>
<line opacity="0.45" x1="114.388" y1="41.5173" x2="129.329" y2="56.4583" stroke="#E46B26" stroke-width="2"/>
<line opacity="0.45" y1="-1" x2="21.1297" y2="-1" transform="matrix(-0.707107 0.707107 0.707107 0.707107 128.622 42.2244)" stroke="#E46B26" stroke-width="2"/>
</svg>
