<svg width="54" height="55" viewBox="0 0 54 55" fill="none" xmlns="http://www.w3.org/2000/svg">
<mask id="mask0_215_1031" style="mask-type:alpha" maskUnits="userSpaceOnUse" x="0" y="0" width="54" height="55">
<rect y="0.5" width="54" height="54" fill="#D9D9D9"/>
</mask>
<g mask="url(#mask0_215_1031)">
<path fill-rule="evenodd" clip-rule="evenodd" d="M10.125 40.3942V42.6442H43.875V40.3942H39.375V23.5192C39.375 20.5221 38.4231 17.8862 36.5192 15.6117C34.6154 13.3372 32.1923 11.9115 29.25 11.3345V9.75952C29.25 9.11047 29.0373 8.57321 28.6118 8.14773C28.1863 7.72226 27.649 7.50952 27 7.50952C26.351 7.50952 25.8137 7.72226 25.3882 8.14773C24.9627 8.57321 24.75 9.11047 24.75 9.75952V11.3345C21.8077 11.9115 19.3846 13.3372 17.4808 15.6117C15.5769 17.8862 14.625 20.5221 14.625 23.5192V40.3942H10.125ZM37.125 40.3941H16.875V23.5192C16.875 20.698 17.8572 18.3052 19.8217 16.3408C21.7861 14.3764 24.1788 13.3942 27 13.3942C29.8212 13.3942 32.2139 14.3764 34.1783 16.3407C36.1428 18.3052 37.125 20.698 37.125 23.5191V40.3941Z" fill="#1C1B1F"/>
<path d="M27 49.1346C26.0221 49.1346 25.1719 48.7877 24.4493 48.0939C23.7267 47.4001 23.3654 46.5355 23.3654 45.4999H30.6346C30.6346 46.5355 30.2877 47.4001 29.594 48.0939C28.9002 48.7876 28.0356 49.1346 27 49.1346Z" fill="#FF5C00"/>
</g>
</svg>
