<svg width="20" height="48" viewBox="0 0 20 48" fill="none" xmlns="http://www.w3.org/2000/svg">
<path d="M0.169497 4.49824V9.99667H19.8305V4.49824H0.169497Z" fill="#1A73E8"/>
<path d="M0.169497 16.1824V10.684H19.8305V16.1824H0.169497Z" fill="#1A73E8"/>
<path d="M0 16.8697H20L16.7938 17.8063L14.818 18.3834L13.8898 18.6545L13.5789 18.7454C11.2418 19.428 8.75822 19.428 6.42114 18.7454V18.7454L5.43327 18.4568L3.45754 17.8797L0 16.8697Z" fill="#1A73E8"/>
<path d="M0.169497 3.81094H19.8305V3.12363H0.169497V3.81094Z" fill="#1A73E8"/>
<path d="M0 2.43652H20V2.43652C13.5193 0.209425 6.48067 0.209425 0 2.43652V2.43652Z" fill="#1A73E8"/>
<path d="M3.81916 32.0486H4.93934L10.0626 25.6319L9.18782 24.5098L3.93809 31.0471L3.81916 32.0486Z" fill="#1C1B1F"/>
<path d="M16.2055 32.0486L16.1038 31.0471L10.9584 24.51L10.0626 25.6319L15.065 32.0486H16.2055Z" fill="#1C1B1F"/>
<path d="M10.0819 23.3964L9.18782 24.5098L10.0626 25.6319L10.9584 24.51L10.0819 23.3964Z" fill="#1C1B1F"/>
<path d="M3.45754 17.8797L0 47.5714H1.97574L3.5813 34.0515L3.81916 32.0486L3.93809 31.0471L5.3058 19.5302L5.43327 18.4568L3.45754 17.8797Z" fill="#1C1B1F"/>
<path d="M19.8305 47.5714L16.7938 17.8063L14.818 18.3834L14.9345 19.5302L16.1038 31.0471L16.2055 32.0486L16.4089 34.0515L17.7816 47.5714H19.8305Z" fill="#1C1B1F"/>
<path d="M3.81916 32.0486L3.5813 34.0515H16.4089L16.2055 32.0486H15.065H4.93934H3.81916Z" fill="#1C1B1F"/>
<path d="M6.42114 18.7454L5.43327 18.4568L5.3058 19.5302L9.18782 24.5098L10.0819 23.3964L6.42114 18.7454Z" fill="#1C1B1F"/>
<path d="M14.9345 19.5302L14.818 18.3834L13.8898 18.6545L10.0819 23.3964L10.9584 24.51L14.9345 19.5302Z" fill="#1C1B1F"/>
</svg>
