<svg width="16" height="38" viewBox="0 0 16 38" fill="none" xmlns="http://www.w3.org/2000/svg">
<path d="M0.135597 3.33884V7.67783H15.8644V3.33884H0.135597Z" fill="#1C1B1F"/>
<path d="M0.135597 12.5592V8.2202H15.8644V12.5592H0.135597Z" fill="#1C1B1F"/>
<path d="M0 13.1016H16L13.435 13.8406L11.8544 14.2961L11.1118 14.51L10.8631 14.5817C8.99242 15.1207 7.00759 15.1207 5.13691 14.5817V14.5817L4.34662 14.354L2.76603 13.8986L0 13.1016Z" fill="#1C1B1F"/>
<path d="M0.135597 2.79647H15.8644V2.25409H0.135597V2.79647Z" fill="#1C1B1F"/>
<path d="M0 1.71187H16V1.71187C10.8117 -0.0468929 5.18834 -0.0468929 0 1.71187V1.71187Z" fill="#1C1B1F"/>
<path d="M3.05533 25.0797H3.95147L8.0501 20.0161L7.35025 19.1306L3.15048 24.2894L3.05533 25.0797Z" fill="#1C1B1F"/>
<path d="M12.9644 25.0797L12.8831 24.2894L8.76676 19.1307L8.0501 20.0161L12.052 25.0797H12.9644Z" fill="#1C1B1F"/>
<path d="M8.06554 18.2519L7.35025 19.1306L8.0501 20.0161L8.76676 19.1307L8.06554 18.2519Z" fill="#1C1B1F"/>
<path d="M2.76603 13.8986L0 37.3293H1.58059L2.86504 26.6603L3.05533 25.0797L3.15048 24.2894L4.24464 15.201L4.34662 14.354L2.76603 13.8986Z" fill="#1C1B1F"/>
<path d="M15.8644 37.3293L13.435 13.8406L11.8544 14.2961L11.9476 15.201L12.8831 24.2894L12.9644 25.0797L13.1271 26.6603L14.2253 37.3293H15.8644Z" fill="#1C1B1F"/>
<path d="M3.05533 25.0797L2.86504 26.6603H13.1271L12.9644 25.0797H12.052H3.95147H3.05533Z" fill="#1C1B1F"/>
<path d="M5.13691 14.5817L4.34662 14.354L4.24464 15.201L7.35025 19.1306L8.06554 18.2519L5.13691 14.5817Z" fill="#1C1B1F"/>
<path d="M11.9476 15.201L11.8544 14.2961L11.1118 14.51L8.06554 18.2519L8.76676 19.1307L11.9476 15.201Z" fill="#1C1B1F"/>
</svg>
